<svg width="18" height="18" viewBox="0 0 18 18" fill="none" xmlns="http://www.w3.org/2000/svg">
<path d="M9.2295 10.512C9.78355 10.5688 10.2968 10.8291 10.6701 11.2425C11.0433 11.6559 11.2499 12.193 11.25 12.75C11.25 13.9065 10.545 14.8635 9.597 15.495C8.6445 16.131 7.3695 16.5 6 16.5C4.6305 16.5 3.3555 16.131 2.403 15.495C1.4535 14.865 0.75 13.9065 0.75 12.75C0.75 12.1533 0.987053 11.581 1.40901 11.159C1.83097 10.7371 2.40326 10.5 3 10.5H9L9.2295 10.512ZM15.0045 10.5C15.6012 10.5 16.1735 10.7371 16.5955 11.159C17.0174 11.581 17.2545 12.1533 17.2545 12.75C17.2545 13.7925 16.6065 14.5665 15.78 15.042C14.958 15.5145 13.8825 15.75 12.7545 15.75C12.3745 15.749 12.004 15.721 11.643 15.666C12.2925 14.898 12.7515 13.917 12.7515 12.75C12.7498 11.9379 12.4845 11.1484 11.9955 10.5H15.0045ZM6.003 2.244C6.4527 2.23473 6.89972 2.31532 7.31787 2.48105C7.73602 2.64678 8.11688 2.89431 8.43812 3.20913C8.75936 3.52396 9.01453 3.89975 9.18866 4.31447C9.36279 4.72919 9.45238 5.17449 9.45218 5.62429C9.45198 6.07408 9.36199 6.51931 9.1875 6.93387C9.013 7.34844 8.7575 7.724 8.43598 8.03854C8.11445 8.35308 7.73337 8.60027 7.31508 8.76563C6.89678 8.93099 6.44969 9.01118 6 9.0015C5.11623 8.98288 4.27493 8.61873 3.65649 7.98712C3.03805 7.35551 2.69169 6.50672 2.69169 5.62275C2.69169 4.73879 3.03805 3.89 3.65649 3.25839C4.27493 2.62678 5.11623 2.26263 6 2.244M13.125 3.7455C13.4697 3.7455 13.8111 3.8134 14.1295 3.94532C14.448 4.07724 14.7374 4.2706 14.9812 4.51435C15.2249 4.7581 15.4183 5.04748 15.5502 5.36596C15.6821 5.68444 15.75 6.02578 15.75 6.3705C15.75 6.71522 15.6821 7.05657 15.5502 7.37505C15.4183 7.69353 15.2249 7.98291 14.9812 8.22666C14.7374 8.47041 14.448 8.66377 14.1295 8.79569C13.8111 8.92761 13.4697 8.9955 13.125 8.9955C12.4288 8.9955 11.7611 8.71894 11.2688 8.22666C10.7766 7.73438 10.5 7.0667 10.5 6.3705C10.5 5.67431 10.7766 5.00663 11.2688 4.51435C11.7611 4.02207 12.4288 3.7455 13.125 3.7455Z" fill="#919191"/>
</svg>
