<svg width="18" height="18" viewBox="0 0 18 18" fill="none" xmlns="http://www.w3.org/2000/svg">
<path d="M9 15.7501C7.1125 15.7501 5.51575 15.0968 4.20975 13.7903C2.90375 12.4838 2.2505 10.8871 2.25 9.00006C2.25 7.27506 2.8125 5.77806 3.9375 4.50906C5.0625 3.24006 6.5 2.49956 8.25 2.28756C8.4125 2.26256 8.55625 2.28456 8.68125 2.35356C8.80625 2.42256 8.90625 2.51306 8.98125 2.62506C9.05625 2.73706 9.097 2.86831 9.1035 3.01881C9.11 3.16931 9.063 3.31306 8.9625 3.45006C8.75 3.77506 8.5905 4.11881 8.484 4.48131C8.3775 4.84381 8.3245 5.22506 8.325 5.62506C8.325 6.75006 8.71875 7.70631 9.50625 8.49381C10.2937 9.28131 11.25 9.67506 12.375 9.67506C12.7625 9.67506 13.147 9.61881 13.5285 9.50631C13.91 9.39381 14.2505 9.23756 14.55 9.03756C14.6875 8.95006 14.8282 8.90956 14.9722 8.91606C15.1162 8.92256 15.2443 8.95681 15.3563 9.01881C15.4813 9.08131 15.5783 9.17506 15.6473 9.30006C15.7163 9.42506 15.738 9.57506 15.7125 9.75006C15.5375 11.4751 14.8033 12.9063 13.5098 14.0438C12.2163 15.1813 10.713 15.7501 9 15.7501Z" fill="#919191"/>
</svg>
