<svg width="18" height="18" viewBox="0 0 18 18" fill="none" xmlns="http://www.w3.org/2000/svg">
<path d="M9.5925 15.75L2.25 8.40747V9.90747C2.25 10.305 2.4075 10.6875 2.6925 10.965L8.535 16.8075C9.12 17.3925 10.0725 17.3925 10.6575 16.8075L15.315 12.15C15.9 11.565 15.9 10.6125 15.315 10.0275L9.5925 15.75Z" fill="#919191"/>
<path d="M8.535 13.0575C9.12 13.6425 10.0725 13.6425 10.6575 13.0575L15.315 8.4C15.9 7.815 15.9 6.8625 15.315 6.2775L9.4725 0.435C9.18761 0.156976 8.80557 0.000933995 8.4075 0L3.75 0C2.925 0 2.25 0.675 2.25 1.5V6.1575C2.25 6.555 2.4075 6.9375 2.6925 7.215L8.535 13.0575ZM5.4375 2.25C5.68614 2.25 5.9246 2.34877 6.10041 2.52459C6.27623 2.7004 6.375 2.93886 6.375 3.1875C6.375 3.43614 6.27623 3.6746 6.10041 3.85041C5.9246 4.02623 5.68614 4.125 5.4375 4.125C5.18886 4.125 4.9504 4.02623 4.77459 3.85041C4.59877 3.6746 4.5 3.43614 4.5 3.1875C4.5 2.93886 4.59877 2.7004 4.77459 2.52459C4.9504 2.34877 5.18886 2.25 5.4375 2.25Z" fill="#919191"/>
</svg>
