<svg width="18" height="18" viewBox="0 0 18 18" fill="none" xmlns="http://www.w3.org/2000/svg">
<path fill-rule="evenodd" clip-rule="evenodd" d="M6.1875 1.125C6.09918 1.125 6.0121 1.14579 5.93331 1.1857C5.85451 1.2256 5.78623 1.2835 5.73397 1.35471C5.68172 1.42591 5.64697 1.50842 5.63253 1.59556C5.61809 1.68269 5.62438 1.772 5.65087 1.85625L5.77462 2.25H3.9375C3.78832 2.25 3.64524 2.30926 3.53975 2.41475C3.43426 2.52024 3.375 2.66332 3.375 2.8125V16.3125C3.375 16.4617 3.43426 16.6048 3.53975 16.7102C3.64524 16.8157 3.78832 16.875 3.9375 16.875H14.0625C14.2117 16.875 14.3548 16.8157 14.4602 16.7102C14.5657 16.6048 14.625 16.4617 14.625 16.3125V2.8125C14.625 2.66332 14.5657 2.52024 14.4602 2.41475C14.3548 2.30926 14.2117 2.25 14.0625 2.25H12.2265L12.3502 1.85625C12.3768 1.77191 12.383 1.6825 12.3685 1.59528C12.3541 1.50806 12.3192 1.42548 12.2668 1.35425C12.2144 1.28302 12.146 1.22515 12.0671 1.18531C11.9881 1.14548 11.9009 1.12482 11.8125 1.125H6.1875ZM6.9525 2.25H11.0475L10.6954 3.375H7.30463L6.9525 2.25ZM12.375 7.875H5.625V6.75H12.375V7.875ZM12.375 10.6875H5.625V9.5625H12.375V10.6875ZM5.625 13.5H10.125V12.375H5.625V13.5Z" fill="#919191"/>
</svg>
