<svg width="18" height="18" viewBox="0 0 18 18" fill="none" xmlns="http://www.w3.org/2000/svg">
<path d="M3.84 3.75H14.1525L13.4475 3H4.4475L3.84 3.75ZM15.405 3.9225C15.6225 4.1775 15.75 4.5 15.75 4.875V14.25C15.75 14.6478 15.592 15.0294 15.3107 15.3107C15.0294 15.592 14.6478 15.75 14.25 15.75H3.75C3.35218 15.75 2.97064 15.592 2.68934 15.3107C2.40804 15.0294 2.25 14.6478 2.25 14.25V4.875C2.25 4.5 2.3775 4.1775 2.595 3.9225L3.63 2.6625C3.84 2.4075 4.1475 2.25 4.5 2.25H13.5C13.8525 2.25 14.16 2.4075 14.3625 2.6625L15.405 3.9225ZM4.5 13.5H9V11.25H4.5V13.5Z" fill="#919191"/>
</svg>
