<svg width="18" height="18" viewBox="0 0 18 18" fill="none" xmlns="http://www.w3.org/2000/svg">
<path d="M8.11886 16.5C7.78136 16.5 7.49086 16.3875 7.24736 16.1625C7.00386 15.9375 6.85686 15.6625 6.80636 15.3375L6.63761 14.1C6.47511 14.0375 6.32211 13.9625 6.17861 13.875C6.03511 13.7875 5.89436 13.6938 5.75636 13.5938L4.59386 14.0812C4.28136 14.2188 3.96886 14.2313 3.65636 14.1188C3.34386 14.0063 3.10011 13.8062 2.92511 13.5187L2.04386 11.9813C1.86886 11.6938 1.81886 11.3875 1.89386 11.0625C1.96886 10.7375 2.13761 10.4688 2.40011 10.2563L3.39386 9.50625C3.38136 9.41875 3.37511 9.33425 3.37511 9.25275V8.7465C3.37511 8.6655 3.38136 8.58125 3.39386 8.49375L2.40011 7.74375C2.13761 7.53125 1.96886 7.2625 1.89386 6.9375C1.81886 6.6125 1.86886 6.30625 2.04386 6.01875L2.92511 4.48125C3.10011 4.19375 3.34386 3.99375 3.65636 3.88125C3.96886 3.76875 4.28136 3.78125 4.59386 3.91875L5.75636 4.40625C5.89386 4.30625 6.03761 4.2125 6.18761 4.125C6.33761 4.0375 6.48761 3.9625 6.63761 3.9L6.80636 2.6625C6.85636 2.3375 7.00336 2.0625 7.24736 1.8375C7.49136 1.6125 7.78186 1.5 8.11886 1.5H9.88136C10.2189 1.5 10.5096 1.6125 10.7536 1.8375C10.9976 2.0625 11.1444 2.3375 11.1939 2.6625L11.3626 3.9C11.5251 3.9625 11.6784 4.0375 11.8224 4.125C11.9664 4.2125 12.1069 4.30625 12.2439 4.40625L13.4064 3.91875C13.7189 3.78125 14.0314 3.76875 14.3439 3.88125C14.6564 3.99375 14.9001 4.19375 15.0751 4.48125L15.9564 6.01875C16.1314 6.30625 16.1814 6.6125 16.1064 6.9375C16.0314 7.2625 15.8626 7.53125 15.6001 7.74375L14.6064 8.49375C14.6189 8.58125 14.6251 8.66575 14.6251 8.74725V9.25275C14.6251 9.33425 14.6126 9.41875 14.5876 9.50625L15.5814 10.2563C15.8439 10.4688 16.0126 10.7375 16.0876 11.0625C16.1626 11.3875 16.1126 11.6938 15.9376 11.9813L15.0376 13.5187C14.8626 13.8062 14.6189 14.0063 14.3064 14.1188C13.9939 14.2313 13.6814 14.2188 13.3689 14.0812L12.2439 13.5938C12.1064 13.6938 11.9626 13.7875 11.8126 13.875C11.6626 13.9625 11.5126 14.0375 11.3626 14.1L11.1939 15.3375C11.1439 15.6625 10.9971 15.9375 10.7536 16.1625C10.5101 16.3875 10.2194 16.5 9.88136 16.5H8.11886ZM9.03761 11.625C9.76261 11.625 10.3814 11.3688 10.8939 10.8563C11.4064 10.3438 11.6626 9.725 11.6626 9C11.6626 8.275 11.4064 7.65625 10.8939 7.14375C10.3814 6.63125 9.76261 6.375 9.03761 6.375C8.30011 6.375 7.67811 6.63125 7.17161 7.14375C6.66511 7.65625 6.41211 8.275 6.41261 9C6.41311 9.725 6.66636 10.3438 7.17236 10.8563C7.67836 11.3688 8.30011 11.625 9.03761 11.625Z" fill="#919191"/>
</svg>
